<?xml version="1.0" standalone="no"?>
<!DOCTYPE svg PUBLIC "-//W3C//DTD SVG 20010904//EN"
 "http://www.w3.org/TR/2001/REC-SVG-20010904/DTD/svg10.dtd">
<svg version="1.0" xmlns="http://www.w3.org/2000/svg"
 width="2400.000000pt" height="2400.000000pt" viewBox="0 0 2400.000000 2400.000000"
 preserveAspectRatio="xMidYMid meet">
<metadata>
Created by potrace 1.11, written by Peter Selinger 2001-2013
</metadata>
<g transform="translate(0.000000,2400.000000) scale(0.100000,-0.100000)"
fill="#000000" stroke="none">
<path d="M9183 14343 c3 -15 17 -77 30 -136 22 -98 23 -108 8 -117 -13 -8 -13
-9 6 -10 26 0 151 -83 214 -142 25 -24 56 -61 69 -83 47 -78 101 -111 160
-100 23 5 100 16 110 17 54 4 72 -6 145 -73 52 -50 79 -69 86 -62 7 7 5 15 -9
24 -10 8 -47 39 -81 70 -49 45 -71 58 -106 64 -25 3 -54 4 -64 0 -26 -8 -57
-14 -109 -22 -39 -5 -45 -3 -77 31 -51 55 -83 171 -92 341 l-5 91 -50 12 c-28
6 -93 37 -146 67 -95 56 -95 56 -89 28z"/>
<path d="M9120 14061 c-69 -22 -207 -80 -329 -137 -51 -24 -95 -44 -98 -44
-11 0 -392 -194 -389 -197 2 -3 93 40 202 94 110 54 222 108 249 120 28 12 97
43 155 69 58 26 148 62 200 80 99 34 107 45 10 15z"/>
<path d="M8812 13860 c-23 -10 -56 -33 -73 -51 -35 -36 -72 -110 -68 -137 6
-36 -11 -59 -54 -73 -68 -22 -146 -71 -222 -142 -32 -30 -97 -64 -135 -72 -35
-7 -130 -63 -130 -78 0 -4 -18 -4 -39 -1 -33 5 -41 3 -51 -15 -10 -19 -7 -29
20 -71 17 -27 36 -65 41 -85 6 -20 23 -56 39 -81 15 -25 31 -60 34 -80 5 -23
11 -32 19 -27 6 4 1 -11 -12 -33 -18 -29 -25 -57 -27 -107 -2 -61 -10 -83 -63
-190 -46 -96 -60 -135 -64 -182 -7 -78 -25 -155 -41 -178 -17 -22 -64 -36 -96
-27 -24 7 -50 -4 -50 -21 0 -4 19 -19 43 -33 l42 -26 -171 0 -171 0 8 54 c4
30 10 60 14 67 4 6 9 46 11 88 1 42 3 79 3 83 1 4 7 5 15 2 7 -3 20 5 28 18 9
13 30 31 46 41 l31 18 26 -40 c16 -26 35 -43 53 -47 15 -3 63 -14 106 -25 44
-10 83 -19 86 -19 3 0 6 15 6 33 -1 30 -4 33 -59 50 -32 11 -56 21 -54 24 3 2
-5 20 -18 39 -13 19 -29 61 -35 92 -6 31 -13 67 -15 79 -3 12 -16 34 -29 50
-14 16 -28 43 -31 59 -4 16 -9 37 -12 48 -5 18 -4 18 26 0 39 -23 81 -85 88
-132 4 -19 14 -43 24 -53 16 -16 20 -17 34 -3 22 22 19 52 -10 90 -14 18 -25
35 -25 39 0 3 -11 23 -25 45 -14 22 -25 48 -25 58 0 11 -16 27 -40 41 -24 13
-42 32 -46 47 -3 13 -20 35 -37 49 l-32 24 29 29 c18 20 24 32 16 37 -8 5 -7
11 2 23 10 11 10 16 1 19 -7 2 -10 10 -7 17 7 17 -37 64 -53 59 -7 -3 -13 0
-13 5 0 6 -9 8 -19 5 -31 -8 -40 60 -15 105 16 30 31 39 109 67 144 51 545
227 545 240 0 5 -47 -15 -135 -58 -209 -102 -503 -213 -519 -197 -18 18 -43
11 -55 -16 -6 -14 -8 -31 -4 -37 4 -6 7 -32 8 -57 1 -39 4 -45 21 -42 13 2 9
-3 -12 -17 -42 -26 -46 -34 -48 -96 -3 -70 20 -121 52 -117 27 4 27 1 2 -48
-11 -21 -18 -51 -16 -67 8 -56 27 -139 41 -173 28 -69 24 -82 -42 -163 -34
-42 -58 -77 -52 -79 15 -5 18 -93 7 -185 -9 -72 -14 -85 -36 -99 -14 -9 -45
-18 -69 -19 -51 -2 -61 -10 -45 -35 12 -19 9 -20 -50 -20 -137 -1 -675 -12
-698 -15 -14 -1 -43 -3 -64 -4 -22 0 -37 -3 -34 -6 26 -27 3429 -27 3455 -1 4
3 -2 6 -13 7 -10 0 -57 2 -104 5 -47 2 -172 5 -277 6 -106 2 -193 4 -193 6 0
1 16 17 36 35 44 38 64 81 64 140 0 83 -46 160 -111 187 -33 14 -39 39 -9 41
11 1 24 2 30 3 11 1 37 26 26 26 -4 0 0 10 8 22 21 30 20 57 -4 113 -15 34
-20 69 -20 130 0 63 -4 88 -16 99 -8 9 -20 16 -25 16 -16 0 -10 21 16 52 16
19 25 42 25 64 0 20 5 44 10 54 8 14 7 25 -2 40 -15 24 -46 26 -55 5 -3 -9
-13 -15 -22 -14 -58 5 -90 -15 -97 -63 -3 -18 -7 -39 -9 -46 -3 -7 2 -15 9
-18 8 -3 12 -14 9 -25 -4 -12 1 -21 13 -26 33 -12 33 -25 4 -69 -53 -75 -65
-68 -95 55 -22 88 -55 159 -76 164 -16 4 -16 9 -5 48 26 87 -17 139 -103 124
-58 -10 -80 -41 -76 -109 4 -73 39 -122 83 -117 40 6 -25 -105 -70 -116 -13
-3 -54 -5 -92 -4 l-70 1 -42 -45 c-47 -48 -60 -91 -50 -155 3 -21 2 -49 -3
-62 -5 -13 -19 -55 -32 -95 -13 -40 -26 -67 -30 -62 -5 8 -9 8 -13 0 -4 -6
-25 -11 -47 -11 -180 0 -271 -225 -139 -344 l39 -35 -223 1 -223 1 12 46 c7
25 25 72 40 104 19 41 26 69 22 91 -7 45 0 52 64 59 l56 7 12 -40 c13 -43 38
-64 88 -75 34 -7 37 -4 47 38 5 22 3 27 -12 27 -10 0 -26 6 -37 13 -17 13 -16
15 17 40 19 15 43 27 54 27 23 0 84 36 84 49 0 6 -10 21 -22 34 -13 13 -38 41
-56 63 -31 36 -32 39 -13 45 14 6 23 24 32 66 16 76 15 91 -14 122 -30 33 -97
129 -97 139 0 27 88 36 144 13 18 -7 39 -8 60 -3 20 6 38 5 49 -2 16 -9 23 -5
48 24 16 19 29 37 29 40 0 12 -75 -2 -86 -16 -18 -22 -68 -28 -87 -10 -8 9
-21 16 -27 16 -6 0 -17 6 -25 13 -7 6 -25 21 -39 31 -14 10 -26 24 -26 31 0
20 -33 43 -69 50 -38 7 -76 -13 -86 -45 -10 -32 -23 -24 -50 35 -27 60 -31 85
-14 85 5 0 8 4 5 9 -7 11 42 29 67 25 9 -1 17 3 17 10 0 16 112 76 144 76 14
0 26 4 26 10 0 5 -7 7 -15 4 -35 -14 -9 15 68 75 78 61 188 121 228 124 11 1
19 5 19 9 0 5 13 2 29 -6 16 -9 31 -12 35 -9 12 13 5 -7 -15 -42 -12 -20 -23
-46 -24 -58 -2 -12 -6 -34 -10 -49 -6 -24 -4 -28 14 -28 12 0 35 -6 50 -14 15
-8 47 -13 71 -12 30 2 38 1 26 -6 -9 -5 -16 -17 -16 -28 0 -10 -5 -20 -12 -22
-7 -3 -9 -11 -4 -24 6 -12 10 -15 13 -6 3 9 14 5 35 -13 36 -30 52 -31 77 -6
27 27 84 36 133 22 35 -11 42 -10 59 5 50 45 45 142 -8 184 -29 23 -29 22 12
43 98 50 127 138 70 213 -23 31 -64 51 -95 48 -8 -1 -22 -2 -31 -3 -9 0 -33
-12 -53 -26 -20 -14 -38 -25 -40 -25 -2 0 -3 11 -3 26 0 25 -33 68 -66 85 -32
18 -74 17 -115 -1z m172 -187 c-4 -13 -12 -19 -19 -17 -11 4 -10 9 3 23 21 22
23 21 16 -6z m-64 2 c0 -1 -15 -2 -32 -2 -26 -1 -29 1 -13 7 17 6 45 3 45 -5z
m-70 -9 c0 -2 -7 -7 -16 -10 -8 -3 -12 -2 -9 4 6 10 25 14 25 6z m178 -71 c-3
-3 -9 2 -12 12 -6 14 -5 15 5 6 7 -7 10 -15 7 -18z m9 -47 c-3 -8 -6 -5 -6 6
-1 11 2 17 5 13 3 -3 4 -12 1 -19z m28 -38 c-3 -5 -11 -10 -17 -10 -6 0 -26
-17 -45 -37 -30 -32 -31 -33 -9 -5 14 19 26 37 26 42 0 5 10 11 23 13 12 2 23
5 25 6 2 0 0 -3 -3 -9z m-130 -100 c-3 -5 -14 -10 -23 -9 -14 0 -13 2 3 9 27
11 27 11 20 0z m-684 -51 c-45 -27 -81 -41 -81 -30 0 8 38 30 75 42 38 13 40
9 6 -12z m-71 -263 c0 -3 -4 -8 -10 -11 -5 -3 -10 -1 -10 4 0 6 5 11 10 11 6
0 10 -2 10 -4z m-1 -68 c11 -21 17 -38 12 -38 -5 0 -15 15 -22 33 -7 17 -15
37 -17 42 -10 22 7 -2 27 -37z m51 -42 c0 -2 -7 -9 -15 -16 -13 -11 -14 -10
-9 4 5 14 24 23 24 12z m696 -87 c36 -9 50 -9 70 2 22 11 27 11 34 -1 13 -20
12 -37 -2 -60 -10 -15 -10 -22 0 -32 19 -19 15 -24 -32 -52 -24 -14 -60 -41
-80 -61 -20 -19 -41 -35 -47 -35 -12 0 -7 -59 8 -96 4 -10 -27 9 -68 41 -41
33 -76 61 -78 62 -3 2 3 27 12 56 15 45 15 53 2 63 -12 9 -11 15 5 42 11 18
24 32 29 32 6 0 22 11 37 25 30 28 46 30 110 14z m-553 -111 c-9 -35 -34 -60
-48 -48 -11 9 -10 39 3 93 1 4 2 12 2 18 0 7 11 0 24 -14 17 -18 23 -33 19
-49z m939 -63 c7 -34 -20 -56 -66 -53 -20 1 -36 4 -36 6 0 16 27 45 53 56 44
19 44 19 49 -9z m-235 -121 c1 -5 -1 -15 -5 -22 -7 -10 -18 -8 -49 10 l-41 23
46 0 c25 -1 47 -5 49 -11z m-260 -88 c87 -84 100 -110 43 -89 -36 13 -49 0
-26 -26 9 -10 16 -25 16 -34 0 -19 32 -31 60 -22 13 4 22 1 26 -10 12 -30 63
-47 119 -40 l52 6 17 -45 c10 -27 33 -59 54 -76 l37 -30 -273 0 -272 0 38 38
c80 80 82 198 3 282 l-38 41 16 45 c9 24 22 44 28 44 7 0 52 -38 100 -84z
m318 75 c7 -12 -24 -43 -36 -35 -5 3 -5 13 1 25 11 20 25 25 35 10z m215 -51
c0 -5 -5 -10 -11 -10 -5 0 -7 5 -4 10 3 6 8 10 11 10 2 0 4 -4 4 -10z m-187
-24 c40 -44 11 -49 -35 -6 -32 30 -33 31 -8 28 14 -2 33 -12 43 -22z m-602
-53 l2 -28 4 28 c2 15 9 27 15 27 6 0 8 -10 5 -22 -4 -12 -2 -27 3 -33 11 -14
-7 -78 -20 -70 -4 2 -17 -6 -29 -19 l-21 -23 20 -18 c16 -14 20 -31 20 -77 0
-59 -8 -69 -39 -49 -10 7 -11 13 -2 27 10 18 10 18 11 -1 0 -17 2 -17 10 -5
13 20 13 33 -1 24 -8 -4 -9 1 -4 17 15 47 15 54 1 24 -8 -16 -15 -26 -16 -21
0 11 -30 -14 -30 -26 0 -5 5 -6 10 -3 6 3 10 2 10 -4 0 -5 -5 -13 -11 -17 -12
-7 -69 43 -69 62 0 7 23 20 51 30 28 10 46 20 41 22 -5 1 -30 -6 -55 -17 -43
-18 -46 -19 -51 -3 -9 34 -1 85 14 90 12 4 13 2 3 -9 -20 -20 -15 -29 14 -29
26 0 26 1 7 15 -24 18 -7 19 26 0 14 -8 32 -14 40 -15 8 0 -11 12 -43 28 -55
26 -57 28 -43 47 14 19 15 19 52 -18 20 -20 39 -35 42 -33 2 3 -13 21 -33 40
-31 30 -35 39 -25 51 18 21 27 19 45 -12 15 -25 14 -16 -1 21 -5 13 7 20 39
25 4 0 8 -11 8 -26z m464 17 c3 -5 0 -21 -7 -34 -17 -34 -44 -20 -34 18 6 26
29 35 41 16z m337 -22 c-7 -7 -12 -8 -12 -2 0 14 12 26 19 19 2 -3 -1 -11 -7
-17z m42 -29 c-32 -36 -56 -20 -34 22 9 16 15 17 31 8 20 -10 20 -11 3 -30z
m-734 19 c0 -6 -8 -21 -17 -32 -15 -18 -14 -18 8 2 l26 22 13 -25 c7 -14 11
-26 9 -28 -2 -2 -15 -8 -29 -15 l-25 -12 25 6 c41 10 42 10 46 -13 4 -22 1
-23 -59 -23 -34 0 -57 4 -52 8 6 4 11 16 13 27 1 11 4 25 6 30 1 6 6 22 11 38
7 27 25 38 25 15z m564 -4 c4 -10 1 -14 -6 -12 -15 5 -23 28 -10 28 5 0 13 -7
16 -16z m214 -34 c11 -19 9 -22 -22 -35 -46 -19 -49 -19 -40 7 15 48 42 60 62
28z m-233 -6 c19 -14 19 -14 -5 -10 -14 2 -29 5 -33 5 -10 1 1 21 11 21 4 0
16 -7 27 -16z m-7 -35 c-18 -12 -48 -11 -48 0 0 5 14 9 31 9 20 -1 26 -4 17
-9z m262 -20 c0 -17 -7 -19 -67 -18 -38 1 -60 3 -50 6 9 2 15 9 12 14 -3 5 0
6 8 3 8 -3 30 1 48 9 39 16 49 14 49 -14z m-363 -26 c2 -6 -14 -13 -37 -15
-42 -4 -48 0 -29 19 14 14 62 10 66 -4z m-385 -28 c-5 -30 -13 -30 -77 0 l-50
23 66 1 c65 1 66 1 61 -24z m748 15 c0 -18 -27 -77 -38 -84 -10 -6 -82 54 -82
68 0 3 21 -4 46 -15 26 -11 49 -18 51 -15 5 5 -89 42 -99 38 -5 -1 -8 3 -8 8
0 6 28 10 65 10 38 0 65 -4 65 -10z m-213 -8 c9 -6 2 -19 -26 -46 l-39 -38
-21 40 c-19 38 -19 41 -3 45 29 8 76 7 89 -1z m-673 -23 c-3 -5 -1 -8 4 -7 9
3 87 -62 80 -66 -2 -1 -11 -7 -20 -14 -14 -12 -19 -9 -32 15 l-15 28 6 -32 c5
-29 3 -33 -16 -33 -21 0 -22 4 -20 65 1 35 6 62 11 59 4 -3 6 -10 2 -15z m78
-2 c44 -20 46 -23 33 -41 -14 -19 -16 -18 -57 22 -47 47 -43 50 24 19z m668 1
c0 7 19 -6 43 -28 40 -39 41 -42 23 -55 -17 -13 -21 -12 -33 3 -14 16 -14 16
-9 0 6 -21 -33 -37 -44 -18 -6 9 -9 9 -12 -1 -4 -11 -13 -10 -46 5 -23 11 -42
24 -42 31 0 6 17 26 37 44 35 31 38 32 51 14 14 -17 14 -16 9 7 -6 24 -5 24 8
6 8 -11 15 -14 15 -8z"/>
<path d="M8534 12383 c1 -19 5 -28 10 -23 6 6 5 18 -1 32 -10 21 -10 21 -9 -9z"/>
<path d="M8443 12323 c9 -2 23 -2 30 0 6 3 -1 5 -18 5 -16 0 -22 -2 -12 -5z"/>
<path d="M8495 12258 l-40 -43 43 40 c39 36 47 45 39 45 -2 0 -21 -19 -42 -42z"/>
<path d="M9195 12285 c-40 -19 -16 -19 26 0 19 8 27 14 19 14 -8 0 -28 -7 -45
-14z"/>
<path d="M9330 12255 c0 -5 5 -17 10 -25 5 -8 10 -10 10 -5 0 6 -5 17 -10 25
-5 8 -10 11 -10 5z"/>
<path d="M9262 12225 c-17 -37 -14 -45 4 -12 9 16 14 31 11 33 -2 2 -9 -7 -15
-21z"/>
<path d="M9301 12234 c0 -11 3 -14 6 -6 3 7 2 16 -1 19 -3 4 -6 -2 -5 -13z"/>
<path d="M8642 13463 c-18 -8 -31 -18 -28 -20 2 -2 21 5 43 16 45 24 33 28
-15 4z"/>
<path d="M8550 13429 c-13 -6 -56 -14 -95 -18 l-70 -8 55 -1 c30 0 80 7 110
18 30 10 48 18 40 18 -8 1 -26 -4 -40 -9z"/>
<path d="M8635 13408 c-62 -33 -182 -61 -360 -84 -69 -9 -73 -17 -5 -10 178
17 383 71 405 107 8 12 7 12 -40 -13z"/>
<path d="M7059 13394 c-26 -28 -65 -31 -124 -7 -58 22 -95 23 -137 2 -48 -24
-56 -24 -61 4 -2 12 -4 -12 -4 -53 -1 -41 2 -63 6 -49 5 23 9 25 38 17 30 -8
32 -10 20 -29 -10 -16 -9 -21 3 -29 16 -10 43 6 35 20 -3 5 -1 11 4 15 13 7
46 -29 79 -85 38 -66 69 -102 76 -87 3 6 3 2 0 -10 -3 -13 -2 -28 2 -35 5 -7
8 -22 9 -33 0 -13 8 -21 23 -23 18 -3 22 -8 17 -20 -25 -61 -15 -138 30 -236
40 -88 40 -89 -71 -181 -51 -43 -49 -62 12 -191 23 -51 42 -102 42 -115 -2
-29 -25 -59 -47 -59 -9 0 -22 -4 -30 -9 -13 -8 -13 -12 -1 -26 15 -19 67 -17
142 5 35 10 36 12 28 40 -5 17 -16 44 -24 62 -9 17 -16 42 -16 55 0 13 -12 47
-26 74 -25 50 -25 52 -7 68 23 20 64 44 68 39 1 -2 10 -17 19 -35 16 -32 30
-45 169 -153 55 -43 79 -69 83 -89 5 -24 9 -27 37 -23 18 2 40 11 50 20 16 14
13 19 -51 81 -37 36 -84 79 -105 95 -26 19 -35 32 -29 38 7 7 4 21 -8 42 -10
17 -21 60 -24 96 -4 36 -17 99 -30 140 -48 157 -30 168 91 53 18 -17 33 -41
33 -52 0 -25 9 -27 24 -5 9 12 17 13 38 5 42 -16 42 4 1 38 -21 17 -41 31 -45
31 -3 0 -40 33 -80 73 -94 92 -116 110 -155 131 l-33 16 35 46 c35 46 41 88
15 104 -7 4 -10 11 -9 16 4 11 -36 31 -78 38 -41 8 -98 -41 -88 -75 6 -19 5
-20 -8 -8 -9 9 -12 18 -6 25 9 11 -20 58 -46 76 -5 4 2 8 17 8 33 0 43 13 23
30 -25 21 -17 27 42 35 31 4 66 10 77 15 18 7 19 9 4 15 -13 5 -14 13 -8 35
11 39 -11 46 -41 14z m-143 -142 c-10 -2 -22 0 -28 6 -6 6 0 7 19 4 21 -5 23
-7 9 -10z"/>
<path d="M8760 13302 c-73 -37 -125 -47 -225 -46 -68 0 -84 -1 -50 -5 112 -14
204 2 293 49 46 24 30 26 -18 2z"/>
<path d="M8140 13282 c0 -5 23 -7 50 -5 28 1 93 -3 145 -10 52 -7 95 -10 95
-7 0 8 -186 30 -247 30 -24 0 -43 -4 -43 -8z"/>
<path d="M10270 13043 c-157 -30 -277 -115 -319 -229 -17 -45 -23 -82 -24
-154 -2 -139 15 -225 60 -314 34 -67 60 -90 124 -111 77 -25 123 -66 158 -138
58 -119 62 -330 11 -557 -17 -79 -22 -261 -8 -310 3 -8 9 -28 13 -45 30 -106
122 -216 220 -261 149 -68 357 -69 487 -3 92 47 180 181 213 321 8 38 17 126
20 197 8 233 33 359 93 478 51 99 132 153 232 153 118 1 197 73 252 230 26 74
33 127 32 240 0 84 -3 101 -28 149 -26 50 -67 98 -124 143 -67 54 -220 108
-342 122 -30 3 -73 8 -95 10 -42 6 -193 23 -260 31 -22 2 -60 7 -85 10 -25 3
-65 7 -90 10 -25 2 -63 6 -85 9 -22 3 -65 8 -95 12 -30 3 -70 8 -87 10 -84 11
-205 9 -273 -3z"/>
<path d="M5807 12644 c-2 -2 -56 -4 -402 -20 -292 -12 -315 -15 -400 -41 -172
-54 -274 -163 -280 -300 -6 -171 78 -383 172 -432 12 -6 40 -13 63 -16 98 -12
165 -77 204 -197 32 -97 37 -145 40 -368 3 -182 5 -200 30 -275 45 -132 123
-216 241 -261 73 -28 256 -25 339 5 136 49 220 152 243 298 10 63 10 186 0
243 -16 98 -17 313 -2 383 28 135 99 216 202 233 106 17 171 106 191 262 29
214 -28 346 -183 429 -88 46 -166 61 -322 60 -73 -1 -135 -2 -136 -3z"/>
<path d="M14857 12508 c-182 -21 -297 -161 -292 -353 1 -33 6 -98 10 -145 18
-194 9 -374 -24 -438 -44 -85 -90 -92 -139 -19 -38 56 -68 182 -86 367 -19
188 -21 199 -40 262 -33 112 -107 193 -202 223 -96 30 -230 18 -324 -30 -101
-52 -142 -130 -146 -280 -1 -55 2 -125 6 -155 5 -30 11 -77 14 -105 12 -115
36 -323 42 -365 3 -25 7 -61 10 -80 24 -201 131 -364 312 -473 205 -124 435
-151 736 -86 291 62 481 208 547 418 40 129 42 209 14 496 -2 22 -6 69 -10
105 -3 36 -7 88 -10 115 -2 28 -7 77 -9 110 -15 176 -20 214 -38 262 -48 130
-182 192 -371 171z"/>
<path d="M8124 12422 c-6 -4 -13 -26 -15 -49 -4 -36 -1 -43 18 -52 13 -6 33
-31 45 -55 36 -75 71 -35 42 49 -9 27 -18 60 -21 74 -6 37 -40 53 -69 33z"/>
<path d="M18418 12404 c-2 -1 -21 -4 -43 -7 -208 -29 -356 -126 -428 -282 -43
-94 -60 -252 -36 -340 36 -130 104 -207 256 -290 186 -101 253 -162 253 -231
0 -40 -42 -84 -80 -84 -27 0 -110 50 -160 96 -14 12 -51 38 -83 58 -76 45
-144 46 -201 2 -132 -100 -149 -316 -33 -421 39 -35 62 -45 203 -87 264 -77
332 -87 559 -84 140 3 183 7 245 25 208 62 337 196 373 386 14 70 14 177 2
244 -8 43 -30 88 -59 119 -23 27 -182 132 -353 236 -108 65 -183 131 -183 159
0 7 6 21 13 31 11 16 24 18 81 14 64 -4 68 -5 109 -51 69 -74 161 -99 259 -71
171 51 222 299 87 433 -55 55 -134 85 -285 106 -21 3 -50 8 -64 10 -14 3 -47
7 -75 11 -27 3 -78 9 -113 14 -54 7 -237 11 -244 4z"/>
<path d="M12090 12221 c-106 -22 -232 -115 -282 -208 -58 -108 -59 -112 -56
-668 3 -497 4 -511 25 -568 36 -95 80 -147 158 -187 67 -34 70 -35 189 -35
162 0 220 18 290 88 68 68 79 107 82 275 1 73 3 135 5 137 2 2 74 -65 159
-148 282 -276 417 -355 610 -355 180 -1 264 57 276 190 14 159 -64 353 -223
551 l-54 68 63 62 c87 84 109 134 114 256 6 170 -33 277 -142 387 -65 66 -146
111 -249 141 -52 14 -119 17 -495 19 -239 1 -451 -1 -470 -5z"/>
<path d="M17115 12149 c-136 -27 -269 -101 -375 -208 -97 -98 -111 -110 -147
-120 -42 -12 -93 13 -163 79 -155 145 -358 234 -540 234 -162 1 -262 -49 -316
-159 -51 -106 -54 -136 -51 -700 3 -506 3 -522 25 -585 27 -83 77 -141 150
-177 53 -26 65 -28 182 -28 117 0 128 2 175 27 133 72 181 176 183 402 1 53 7
114 13 136 13 44 42 80 65 80 32 0 81 -29 124 -74 100 -105 157 -109 254 -17
86 83 119 97 150 66 24 -25 36 -82 42 -195 11 -240 53 -341 169 -403 35 -19
56 -22 160 -22 111 0 124 2 177 28 101 49 141 121 156 272 4 44 7 294 6 555 0
529 -4 566 -68 672 -34 59 -103 111 -168 128 -53 15 -154 19 -203 9z"/>
<path d="M8494 12028 c-26 -9 -58 -27 -72 -40 -28 -26 -58 -88 -66 -133 -2
-17 -7 -49 -11 -72 -8 -52 -9 -1042 -1 -1098 32 -224 144 -317 373 -311 222 6
333 95 333 266 0 56 24 100 55 100 24 0 62 -34 190 -171 122 -130 237 -187
393 -194 129 -6 216 36 263 127 49 95 52 138 52 693 0 456 -2 529 -17 596 -37
166 -131 244 -305 254 -137 9 -249 -30 -316 -108 -49 -57 -65 -97 -72 -184 -7
-99 -23 -133 -62 -133 -38 0 -78 34 -150 129 -174 229 -417 344 -587 279z"/>
<path d="M7090 11973 c-98 -15 -256 -94 -337 -168 -62 -56 -105 -123 -218
-340 -64 -123 -97 -185 -199 -377 -172 -325 -177 -339 -177 -433 0 -98 51
-180 138 -221 51 -24 68 -27 177 -28 181 -1 250 16 362 90 90 61 145 78 244
78 158 -1 277 -59 365 -179 69 -95 167 -155 302 -186 26 -6 57 -13 68 -16 11
-2 48 -4 82 -4 50 0 74 6 115 28 120 65 157 195 115 398 -18 87 -19 92 -41
225 -8 43 -55 301 -71 385 -9 44 -18 94 -20 110 -37 226 -74 307 -194 425
-122 121 -215 166 -391 190 -44 6 -94 13 -112 16 -45 7 -178 11 -208 7z"/>
<path d="M19085 10242 c-30 -6 -53 -30 -60 -63 -7 -29 -19 -36 -70 -42 -89
-11 -146 -86 -146 -196 -1 -67 17 -116 56 -155 39 -39 68 -47 163 -48 149 0
166 28 160 272 -3 118 -8 173 -18 194 -15 30 -49 45 -85 38z m-70 -167 c46
-45 22 -135 -35 -135 -30 0 -60 39 -60 77 0 34 36 83 60 83 6 0 22 -11 35 -25z
m-67 -177 c17 -17 15 -54 -4 -72 -21 -22 -31 -20 -49 8 -30 45 16 101 53 64z"/>
<path d="M17899 10226 c-42 -21 -51 -56 -51 -207 1 -242 15 -289 85 -289 63 0
72 16 75 132 3 123 8 148 27 148 15 0 22 -35 29 -160 4 -61 8 -78 26 -92 45
-36 104 -17 118 37 14 52 6 239 -12 277 -29 61 -94 81 -155 49 -12 -7 -24 -11
-26 -9 -1 2 -5 23 -8 46 -2 24 -11 50 -18 57 -20 20 -63 25 -90 11z"/>
<path d="M18349 10233 c-20 -5 -46 -52 -44 -81 3 -25 40 -62 64 -62 9 0 2 -7
-16 -16 -17 -9 -36 -28 -42 -42 -14 -35 -9 -220 7 -250 21 -36 55 -54 85 -43
47 18 61 53 63 165 2 112 -11 160 -46 171 l-22 7 24 16 c32 22 38 32 38 69 0
51 -52 82 -111 66z m71 -54 c-12 -22 -13 -22 -26 -4 -8 10 -14 24 -14 31 0 18
23 23 38 9 11 -10 12 -17 2 -36z m23 -45 c-7 -18 -19 -18 -26 0 -7 18 1 26 18
19 8 -2 11 -11 8 -19z"/>
<path d="M18590 10218 c-32 -34 -40 -82 -38 -238 0 -116 4 -153 19 -188 29
-67 81 -75 124 -18 18 25 20 43 21 199 1 179 -3 207 -38 245 -27 28 -61 28
-88 0z"/>
<path d="M14860 10212 c-22 -7 -60 -44 -60 -58 0 -7 -14 -24 -31 -38 -39 -33
-43 -70 -14 -121 16 -27 25 -64 29 -113 6 -77 22 -115 63 -146 35 -26 93 -32
130 -13 58 30 69 116 18 139 -16 7 -29 24 -35 47 -13 51 -7 74 23 89 54 26 47
109 -11 124 -31 8 -38 23 -33 65 3 21 -45 37 -79 25z"/>
<path d="M12906 10195 c-74 -26 -110 -80 -117 -175 -2 -19 -9 -43 -17 -52 -19
-23 -21 -59 -5 -78 11 -14 20 -63 22 -127 2 -62 100 -87 140 -37 16 20 21 41
21 85 0 55 2 59 31 74 25 14 30 21 27 48 -2 26 -8 33 -30 35 -42 5 -50 52 -8
52 35 0 58 58 51 130 -4 44 -57 65 -115 45z"/>
<path d="M13146 10189 c-40 -31 -48 -74 -45 -246 2 -137 5 -163 22 -195 36
-67 97 -64 127 5 16 36 19 66 18 197 -1 153 -7 191 -39 233 -20 26 -55 28 -83
6z"/>
<path d="M11880 10193 c-23 -8 -60 -45 -60 -60 0 -7 -15 -26 -34 -43 -27 -25
-33 -37 -30 -62 2 -17 10 -39 18 -47 19 -22 27 -53 31 -121 2 -32 9 -69 15
-82 48 -91 146 -116 206 -51 32 35 32 113 -1 113 -24 0 -47 39 -48 82 -2 37 1
44 25 56 16 7 31 25 34 39 9 35 -7 77 -31 81 -26 5 -45 30 -45 58 0 13 -5 26
-10 29 -16 10 -53 14 -70 8z"/>
<path d="M16215 10121 c-53 -26 -66 -38 -94 -86 -49 -84 -22 -223 55 -282 64
-48 188 -41 213 13 6 14 11 31 11 38 0 21 -36 48 -62 46 -45 -4 -66 0 -72 15
-7 20 20 45 49 45 77 0 108 61 81 160 -17 58 -111 85 -181 51z m111 -9 c19
-12 22 -50 7 -71 -19 -29 -51 -27 -65 4 -21 46 19 93 58 67z m38 -108 c22 -9
20 -41 -3 -54 -25 -13 -35 1 -27 36 7 26 7 27 30 18z"/>
<path d="M16890 10132 c-23 -7 -40 -33 -40 -60 0 -14 14 -65 31 -114 34 -101
39 -152 20 -221 -17 -58 -5 -93 34 -103 55 -14 112 25 143 97 10 24 40 110 67
191 43 131 47 149 36 176 -23 55 -86 48 -122 -13 -23 -39 -44 -45 -54 -16 -12
38 -78 75 -115 63z"/>
<path d="M17575 10126 c-76 -35 -116 -113 -110 -213 9 -138 119 -215 244 -172
31 11 57 48 56 79 -4 78 -38 130 -83 130 -32 0 -52 16 -52 42 0 17 23 23 72
19 53 -6 77 54 39 97 -24 29 -122 39 -166 18z"/>
<path d="M15415 10114 c-78 -40 -108 -94 -108 -189 0 -60 4 -80 26 -118 46
-77 119 -107 209 -84 40 10 61 35 63 75 3 31 -18 45 -69 44 -80 -2 -86 49 -7
63 51 9 70 22 79 58 17 60 -6 130 -49 152 -37 19 -106 19 -144 -1z m119 -10
c19 -19 21 -54 3 -78 -20 -27 -67 -6 -67 31 0 32 9 48 30 56 8 3 16 6 17 6 1
1 9 -6 17 -15z m43 -112 c15 -10 10 -45 -7 -50 -17 -6 -40 25 -33 44 6 15 22
18 40 6z"/>
<path d="M16553 10119 c-43 -16 -57 -58 -61 -174 -2 -64 1 -128 7 -153 32
-118 161 -78 161 49 0 79 10 108 42 125 50 26 68 51 68 93 0 67 -45 86 -95 40
-20 -18 -21 -18 -32 0 -13 21 -60 31 -90 20z"/>
<path d="M13448 10099 c-86 -44 -118 -191 -67 -308 11 -25 31 -54 44 -64 29
-21 92 -25 134 -7 26 10 36 10 65 -4 41 -19 61 -14 75 22 16 42 21 79 21 182
1 147 -12 190 -58 190 -15 -1 -38 -7 -51 -14 -20 -11 -28 -11 -53 1 -42 22
-71 22 -110 2z m111 -55 c12 -15 21 -37 21 -50 0 -103 -119 -119 -133 -19 -11
79 67 126 112 69z m-71 -227 c-6 -62 -70 -61 -76 1 -2 22 3 34 19 46 21 14 24
14 41 -1 12 -11 18 -28 16 -46z"/>
<path d="M14331 10106 c-44 -19 -60 -76 -57 -206 2 -101 5 -121 25 -153 19
-31 28 -37 57 -37 42 0 89 22 99 47 4 10 9 49 11 88 3 40 12 80 21 94 15 23
16 24 29 6 12 -16 22 -140 15 -179 -4 -23 31 -56 60 -56 46 0 60 45 60 186 -1
124 -10 156 -57 193 -31 24 -71 27 -118 7 -28 -12 -36 -12 -47 -1 -19 19 -69
24 -98 11z"/>
<path d="M15718 10106 c-27 -20 -22 -69 16 -182 51 -154 83 -204 129 -204 40
0 74 55 117 187 52 161 43 224 -29 208 -33 -7 -81 -50 -81 -72 0 -23 -17 -14
-30 16 -11 28 -62 61 -92 61 -7 0 -21 -7 -30 -14z"/>
<path d="M13862 10103 c-39 -8 -52 -51 -51 -175 0 -62 5 -128 12 -147 23 -65
89 -92 159 -64 27 11 42 12 57 4 36 -20 90 -13 116 14 27 26 27 28 30 175 2
153 -19 200 -90 195 -59 -4 -68 -21 -75 -145 -11 -172 -45 -173 -53 -2 -4 88
-22 142 -46 142 -5 0 -15 2 -23 4 -7 2 -23 1 -36 -1z"/>
<path d="M12235 10089 c-94 -55 -131 -189 -80 -290 35 -70 77 -100 145 -104
97 -7 171 73 176 188 3 75 -18 135 -61 177 -31 30 -42 34 -98 37 -35 2 -71 -2
-82 -8z m140 -59 c26 -29 24 -88 -3 -111 -36 -29 -82 -6 -84 42 -2 43 2 57 18
73 21 22 47 20 69 -4z m43 -162 c28 -28 2 -88 -33 -75 -20 8 -30 54 -15 72 15
18 32 19 48 3z"/>
</g>
</svg>
